name Visual3d_SIMM_grf.mot
datacolumns 19
datarows 48
range 1.180000 1.650000
endheader
time	ground_force_vx	ground_force_vy	ground_force_vz	ground_force_px	ground_force_py	ground_force_pz	l_ground_force_vx	l_ground_force_vy	l_ground_force_vz	l_ground_force_px	l_ground_force_py	l_ground_force_pz	ground_torque_x	ground_torque_y	ground_torque_z	l_ground_torque_x	l_ground_torque_y	l_ground_torque_z
1.180000	0.778050	79.227646	-0.875035	0.234807	0.000089	0.291161	-7.070242	204.587906	46.861122	0.251625	-0.007810	-0.182843	0.000539	0.077768	-0.001383	-0.001523	0.115265	0.002211
1.190000	0.458822	62.794479	5.462124	0.236587	0.000262	0.287016	-8.108498	234.008423	52.464005	0.252333	-0.008768	-0.184513	0.000862	0.124384	-0.002213	-0.001562	0.118227	0.002268
1.200000	0.224518	48.420216	10.314350	0.238294	0.000744	0.281744	-8.968646	259.423096	56.861015	0.253607	-0.009587	-0.186272	0.001184	0.170889	-0.003040	-0.001979	0.149810	0.002874
1.210000	0.092139	36.263695	13.256510	0.239868	0.001340	0.275012	-9.405799	280.840332	59.699085	0.255137	-0.010199	-0.187832	0.001471	0.212330	-0.003777	-0.002985	0.225918	0.004333
1.220000	0.066235	26.235878	14.142640	0.241310	0.001861	0.266693	-9.222272	298.534393	60.877975	0.256674	-0.010591	-0.189061	0.001699	0.245333	-0.004364	-0.004705	0.356083	0.006830
1.230000	0.000000	0.000000	0.000000	0.000000	0.000000	0.000000	-8.353048	312.795288	60.504604	0.258056	-0.010797	-0.189930	0.000000	0.000000	0.000000	-0.007124	0.539202	0.010343
1.240000	0.000000	0.000000	0.000000	0.000000	0.000000	0.000000	-6.899327	323.813782	58.830570	0.259206	-0.010863	-0.190466	0.000000	0.000000	0.000000	-0.010072	0.762342	0.014623
1.250000	0.000000	0.000000	0.000000	0.000000	0.000000	0.000000	-5.087749	331.708954	56.207973	0.260103	-0.010837	-0.190738	0.000000	0.000000	0.000000	-0.013264	1.003958	0.019257
1.260000	0.000000	0.000000	0.000000	0.000000	0.000000	0.000000	-3.188431	336.612488	52.993805	0.260762	-0.010755	-0.190823	0.000000	0.000000	0.000000	-0.016368	1.238855	0.023763
1.270000	0.000000	0.000000	0.000000	0.000000	0.000000	0.000000	-1.429687	338.736023	49.478149	0.261216	-0.010642	-0.190793	0.000000	0.000000	0.000000	-0.019085	1.444482	0.027707
1.280000	0.000000	0.000000	0.000000	0.000000	0.000000	0.000000	0.066756	338.396332	45.854443	0.261512	-0.010512	-0.190701	0.000000	0.000000	0.000000	-0.021227	1.606632	0.030817
1.290000	0.000000	0.000000	0.000000	0.000000	0.000000	0.000000	1.295348	336.011200	42.216251	0.261694	-0.010378	-0.190572	0.000000	0.000000	0.000000	-0.022748	1.721723	0.033025
1.300000	0.000000	0.000000	0.000000	0.000000	0.000000	0.000000	2.328542	332.037292	38.582836	0.261799	-0.010247	-0.190407	0.000000	0.000000	0.000000	-0.023702	1.793927	0.034410
1.310000	0.000000	0.000000	0.000000	0.000000	0.000000	0.000000	3.248582	326.900604	34.941677	0.261854	-0.010121	-0.190202	0.000000	0.000000	0.000000	-0.024184	1.830464	0.035110
1.320000	0.000000	0.000000	0.000000	0.000000	0.000000	0.000000	4.099891	320.943329	31.286177	0.261877	-0.010002	-0.189951	0.000000	0.000000	0.000000	-0.024279	1.837648	0.035248
1.330000	0.000000	0.000000	0.000000	0.000000	0.000000	0.000000	4.879212	314.418457	27.630751	0.261885	-0.009889	-0.189658	0.000000	0.000000	0.000000	-0.024043	1.819793	0.034906
1.340000	0.000000	0.000000	0.000000	0.000000	0.000000	0.000000	5.561339	307.499664	24.001657	0.261900	-0.009778	-0.189333	0.000000	0.000000	0.000000	-0.023524	1.780501	0.034152
1.350000	0.000000	0.000000	0.000000	0.000000	0.000000	0.000000	6.131325	300.317352	20.439194	0.261942	-0.009668	-0.188984	0.000000	0.000000	0.000000	-0.022770	1.723372	0.033056
1.360000	0.000000	0.000000	0.000000	0.000000	0.000000	0.000000	6.599281	292.991241	16.991154	0.262027	-0.009555	-0.188618	0.000000	0.000000	0.000000	-0.021835	1.652617	0.031699
1.370000	0.000000	0.000000	0.000000	0.000000	0.000000	0.000000	6.989729	285.661682	13.702953	0.262166	-0.009437	-0.188245	0.000000	0.000000	0.000000	-0.020781	1.572848	0.030169
1.380000	0.000000	0.000000	0.000000	0.000000	0.000000	0.000000	7.327076	278.504822	10.615912	0.262365	-0.009313	-0.187867	0.000000	0.000000	0.000000	-0.019646	1.486992	0.028522
1.390000	0.000000	0.000000	0.000000	0.000000	0.000000	0.000000	7.623949	271.715546	7.758425	0.262632	-0.009185	-0.187484	0.000000	0.000000	0.000000	-0.018446	1.396127	0.026779
1.400000	0.000000	0.000000	0.000000	0.000000	0.000000	0.000000	7.876296	265.473053	5.139530	0.262973	-0.009052	-0.187095	0.000000	0.000000	0.000000	-0.017178	1.300180	0.024939
1.410000	0.000000	0.000000	0.000000	0.000000	0.000000	0.000000	8.057930	259.931183	2.747584	0.263399	-0.008913	-0.186702	0.000000	0.000000	0.000000	-0.015836	1.198573	0.022990
1.420000	0.000000	0.000000	0.000000	0.000000	0.000000	0.000000	8.131987	255.194351	0.547098	0.263920	-0.008761	-0.186305	0.000000	0.000000	0.000000	-0.014416	1.091149	0.020930
1.430000	0.000000	0.000000	0.000000	0.000000	0.000000	0.000000	8.065268	251.298340	-1.513353	0.264540	-0.008595	-0.185901	0.000000	0.000000	0.000000	-0.012927	0.978389	0.018767
1.440000	0.000000	0.000000	0.000000	0.000000	0.000000	0.000000	7.836013	248.218277	-3.483278	0.265254	-0.008414	-0.185488	0.000000	0.000000	0.000000	-0.011386	0.861807	0.016530
1.450000	0.000000	0.000000	0.000000	0.000000	0.000000	0.000000	7.435652	245.893066	-5.398726	0.266054	-0.008224	-0.185067	0.000000	0.000000	0.000000	-0.009830	0.743999	0.014271
1.460000	0.000000	0.000000	0.000000	0.000000	0.000000	0.000000	6.875844	244.246521	-7.290958	0.266934	-0.008029	-0.184638	0.000000	0.000000	0.000000	-0.008304	0.628518	0.012056
1.470000	0.000000	0.000000	0.000000	0.000000	0.000000	0.000000	6.181391	243.187454	-9.189012	0.267883	-0.007835	-0.184195	0.000000	0.000000	0.000000	-0.006857	0.518962	0.009954
1.480000	0.000000	0.000000	0.000000	0.000000	0.000000	0.000000	5.387002	242.610474	-11.122237	0.268886	-0.007643	-0.183728	0.000000	0.000000	0.000000	-0.005525	0.418147	0.008021
1.490000	0.000000	0.000000	0.000000	0.000000	0.000000	0.000000	4.532025	242.400604	-13.119131	0.269923	-0.007454	-0.183232	0.000000	0.000000	0.000000	-0.004340	0.328510	0.006301
1.500000	0.000000	0.000000	0.000000	0.000000	0.000000	0.000000	3.654765	242.423950	-15.198375	0.270972	-0.007267	-0.182715	0.000000	0.000000	0.000000	-0.003331	0.252143	0.004836
1.510000	0.000000	0.000000	0.000000	0.000000	0.000000	0.000000	2.779398	242.527496	-17.361916	0.272003	-0.007089	-0.182186	0.000000	0.000000	0.000000	-0.002516	0.190395	0.003652
1.520000	0.000000	0.000000	0.000000	0.000000	0.000000	0.000000	1.920646	242.534500	-19.593172	0.272979	-0.006927	-0.181657	0.000000	0.000000	0.000000	-0.001899	0.143733	0.002757
1.530000	0.000000	0.000000	0.000000	0.000000	0.000000	0.000000	1.091133	242.240662	-21.851128	0.273870	-0.006791	-0.181143	0.000000	0.000000	0.000000	-0.001468	0.111138	0.002132
1.540000	0.000000	0.000000	0.000000	0.000000	0.000000	0.000000	0.306793	241.415756	-24.072172	0.274647	-0.006690	-0.180660	0.000000	0.000000	0.000000	-0.001197	0.090601	0.001738
1.550000	0.000000	0.000000	0.000000	0.000000	0.000000	0.000000	-0.414396	239.824936	-26.183294	0.275288	-0.006628	-0.180229	0.000000	0.000000	0.000000	-0.001056	0.079927	0.001533
1.560000	0.000000	0.000000	0.000000	0.000000	0.000000	0.000000	-1.052936	237.247910	-28.111250	0.275769	-0.006609	-0.179874	0.000000	0.000000	0.000000	-0.001024	0.077536	0.001487
1.570000	0.000000	0.000000	0.000000	0.000000	0.000000	0.000000	-1.598563	233.500854	-29.785763	0.276062	-0.006638	-0.179625	0.000000	0.000000	0.000000	-0.001083	0.081933	0.001572
1.580000	0.000000	0.000000	0.000000	0.000000	0.000000	0.000000	-2.055326	228.429657	-31.133871	0.276148	-0.006711	-0.179511	0.000000	0.000000	0.000000	-0.001215	0.091989	0.001764
1.590000	0.000000	0.000000	0.000000	0.000000	0.000000	0.000000	-2.443259	221.887970	-32.075474	0.276023	-0.006816	-0.179564	0.000000	0.000000	0.000000	-0.001417	0.107267	0.002058
1.600000	0.000000	0.000000	0.000000	0.000000	0.000000	0.000000	-2.794343	213.707596	-32.514275	0.275712	-0.006923	-0.179805	0.000000	0.000000	0.000000	-0.001684	0.127440	0.002444
1.610000	0.000000	0.000000	0.000000	0.000000	0.000000	0.000000	-3.140823	203.696106	-32.333908	0.275279	-0.006980	-0.180237	0.000000	0.000000	0.000000	-0.001994	0.150919	0.002895
1.620000	0.000000	0.000000	0.000000	0.000000	0.000000	0.000000	-3.499248	191.656006	-31.414503	0.274826	-0.006910	-0.180839	0.000000	0.000000	0.000000	-0.002312	0.174990	0.003357
1.630000	0.000000	0.000000	0.000000	0.000000	0.000000	0.000000	-3.861811	177.443375	-29.659019	0.274493	-0.006612	-0.181556	0.000000	0.000000	0.000000	-0.002588	0.195909	0.003758
1.640000	0.000000	0.000000	0.000000	0.000000	0.000000	0.000000	-4.197787	161.062729	-27.032082	0.274448	-0.005959	-0.182289	0.000000	0.000000	0.000000	-0.002784	0.210723	0.004042
1.650000	0.000000	0.000000	0.000000	0.000000	0.000000	0.000000	-4.469948	142.772049	-23.590565	0.274862	-0.004812	-0.182907	0.000000	0.000000	0.000000	-0.002882	0.218157	0.004184
